<?xml version="1.0" encoding="UTF-8"?>
<svg version="1.1" xmlns="http://www.w3.org/2000/svg" width="1024" height="1024">
<path d="M0 0 C0.59796387 0.43248047 1.19592773 0.86496094 1.81201172 1.31054688 C20.09589068 14.55670614 37.18536231 29.03147641 51 47 C51.42635742 47.54994629 51.85271484 48.09989258 52.29199219 48.66650391 C78.0929876 82.12978197 93.28872286 121.05575013 101.3125 162.25 C101.50649384 163.24250763 101.50649384 163.24250763 101.70440674 164.25506592 C104.14742305 176.86168919 105.16654927 188.85970059 105.13037109 201.67651367 C105.12501878 203.92959344 105.13034097 206.1824732 105.13671875 208.43554688 C105.13984854 215.54340841 105.02074722 222.58250538 104.23876953 229.65649414 C102.2224899 249.44613443 111.17796945 265.24192949 122.66210938 280.59741211 C129.76996885 290.19927505 135.7926067 300.47165851 141.97705078 310.68066406 C145.20864895 315.98319951 148.51133019 321.24060938 151.8125 326.5 C153.04595436 328.47372001 154.27903646 330.44767271 155.51171875 332.421875 C157.73403237 335.98002226 159.96684042 339.53121433 162.20703125 343.078125 C177.64426384 367.67940293 177.64426384 367.67940293 175.375 382 C172.9570793 392.22480192 166.69488146 400.64340434 157.875 406.3828125 C148.23244436 411.16863975 136.86526734 411.2120516 126.3125 411.55859375 C122.8080209 412.02558212 120.85658568 412.97117494 118 415 C118.39867276 420.68108682 119.43213888 425.76816672 121 431.25 C123.84936029 441.4774202 126.00124939 452.11537578 121 462 C118.88243903 464.90981242 116.56362547 467.4796164 114 470 C113.34 470.66 112.68 471.32 112 472 C112.28489606 475.07687744 112.7340901 477.99338538 113.52368164 480.98242188 C115.8857852 490.98776467 114.85646939 501.62132595 109.73046875 510.4609375 C107.71476004 513.41852364 105.6049818 516.23860274 103.19921875 518.890625 C99.5181771 525.36542139 101.41487792 532.18804209 102.9375 539 C104.60973196 547.28679117 105.41702245 555.29475404 105.4375 563.75 C105.4518811 565.21179688 105.4518811 565.21179688 105.46655273 566.703125 C105.3263485 578.80015425 101.20824384 590.65740747 92.9375 599.6875 C75.5383643 615.66864446 53.77263196 619.58801606 31.125 619.4375 C29.79636429 619.43592896 29.79636429 619.43592896 28.44088745 619.43432617 C10.85201496 619.39219106 -6.59213662 618.07635795 -24.09521484 616.42358398 C-25.07501816 616.33165268 -26.05482147 616.23972137 -27.0643158 616.14500427 C-28.87945516 615.97231556 -30.69411006 615.79440414 -32.5080719 615.60975647 C-44.35458389 614.46188034 -55.52097602 614.32847913 -66.4375 619.6875 C-82.13056811 633.84953708 -83.67761766 663.99167091 -87.86328125 683.7421875 C-88.17198864 685.18889395 -88.4807447 686.63559001 -88.78955078 688.08227539 C-89.3771013 690.83687641 -89.95042323 693.59390867 -90.51513672 696.35327148 C-93.93468841 712.50895069 -93.93468841 712.50895069 -99.25 718.5625 C-102.92830489 720.48525028 -105.94481344 721.09776767 -110 720 C-113.38573665 717.42118339 -115.2977515 714.17800001 -116 710 C-116.20820666 698.19313207 -113.32820896 686.53584037 -110.92675781 675.05249023 C-110.25544173 671.8385524 -109.59928715 668.62180298 -108.9453125 665.40429688 C-106.95833125 655.716809 -104.87194061 646.06249222 -102.40625 636.484375 C-102.21951721 635.7454451 -102.03278442 635.0065152 -101.84039307 634.24519348 C-97.84344109 619.21193474 -89.79529676 605.5692684 -76.33203125 597.24609375 C-65.51405014 591.46563148 -55.72682688 590.76706612 -43.6875 590.75 C-42.55563766 590.74649536 -42.55563766 590.74649536 -41.40090942 590.74291992 C-30.6405148 590.73048816 -20.13816662 591.31179798 -9.4375 592.5 C3.31663538 593.89469333 15.92364471 594.31020489 28.75 594.3125 C29.62576691 594.31572266 30.50153381 594.31894531 31.40383911 594.32226562 C46.01886418 594.35532233 59.64656194 594.1157095 72.25 585.875 C79.43909376 578.35912926 81.15073754 569.8775912 81.1315918 559.81787109 C80.90938404 555.05957433 79.92963498 550.47484978 79 545.8125 C74.29448717 520.41497937 74.29448717 520.41497937 80 511 C81.12175531 509.42145785 82.24460806 507.84362202 83.38208008 506.27636719 C89.16980942 498.44723624 89.16980942 498.44723624 90 489 C89.11151654 485.14488532 87.91814054 482.59679135 84.5 480.375 C83.675 479.92125 82.85 479.4675 82 479 C79.67517098 476.13271088 78.98520616 474.71010449 79.0625 471 C81.32121719 463.772105 87.09371746 460.82016828 93.22265625 457.0625 C96.15764819 454.88292792 97.52852314 453.32615083 99 450 C99.55427042 444.16504414 97.85603192 438.25123502 96.49047852 432.60961914 C94.02782615 422.37955463 91.14944127 410.28929727 95.6875 400.25 C100.66959035 393.2481433 107.60517178 389.97224703 115.99658203 388.45996094 C120.23234521 387.95912184 124.47347312 387.58834353 128.72265625 387.22265625 C136.26601109 386.47294859 144.74943522 385.53737932 150.125 379.6875 C151.53588584 375.35406491 151.93797061 372.12243617 150.04125977 367.83056641 C145.5116777 359.51199591 140.27337295 351.7112672 134.97598267 343.87063599 C132.26573968 339.85747601 129.57252944 335.83292015 126.87890625 331.80859375 C126.09530983 330.63864113 126.09530983 330.63864113 125.29588318 329.4450531 C120.17411495 321.78695988 115.2031943 314.04343743 110.36279297 306.20458984 C108.83420739 303.73179734 107.29430515 301.26623094 105.75390625 298.80078125 C102.99584938 294.37919781 100.25722937 289.94615387 97.53417969 285.50292969 C96.53751777 283.87693064 95.5383105 282.25248805 94.53613281 280.62988281 C83.39013364 262.53411658 78.69785146 247.35640404 80.49609375 225.86328125 C84.91517638 170.61682889 69.10607478 112.64657268 36 68 C35.32517578 67.08976074 35.32517578 67.08976074 34.63671875 66.16113281 C-3.57754988 15.14453356 -63.24616135 -12.16015392 -125.3203125 -21.34326172 C-141.37699806 -23.55665065 -157.43679329 -24.20898428 -173.625 -24.1875 C-174.47216583 -24.18689575 -175.31933167 -24.1862915 -176.19216919 -24.18566895 C-233.4079025 -24.07574052 -286.24797471 -11.74518417 -336 17 C-337.11979248 17.64388672 -337.11979248 17.64388672 -338.26220703 18.30078125 C-349.00813227 24.54754748 -358.5758144 31.91526547 -368 40 C-368.90234375 40.77085937 -369.8046875 41.54171875 -370.734375 42.3359375 C-417.89912892 83.79776366 -446.9658979 141.76016707 -451.60327148 204.46142578 C-454.19819361 248.98262653 -445.65026445 294.91279805 -426 335 C-425.5776709 335.86383301 -425.1553418 336.72766602 -424.72021484 337.61767578 C-414.67780802 357.93603378 -402.53428102 376.82460616 -389.92724609 395.625 C-352.41942586 451.58191915 -341.05579781 506.84383308 -353.6875 573.4375 C-358.71359866 598.81542235 -366.24598951 623.35160233 -374 648 C-374.38273071 649.21903015 -374.76546143 650.4380603 -375.15979004 651.69403076 C-379.01176866 663.93080539 -382.93920633 676.14427018 -387.1875 688.25 C-387.63234741 689.56182251 -387.63234741 689.56182251 -388.08618164 690.90014648 C-390.13213028 696.59785932 -392.7360975 701.6256125 -397 706 C-400.68456609 707.68067927 -402.73001131 708.26581159 -406.6875 707.4375 C-409.7167757 705.55443673 -411.20850923 704.11852098 -413 701 C-413.77486959 694.8412825 -412.56689915 689.33246715 -410.68359375 683.5078125 C-410.43578659 682.70488266 -410.18797943 681.90195282 -409.93266296 681.07469177 C-409.39422738 679.33441305 -408.85017671 677.59586362 -408.30108643 675.85891724 C-407.11025081 672.08900385 -405.94923903 668.31009485 -404.78607178 664.53157043 C-404.16459549 662.5135606 -403.54172442 660.49597984 -402.9175415 658.47880554 C-367.54529411 547.35232627 -367.54529411 547.35232627 -393.171875 436.7890625 C-401.51970573 421.19065399 -411.32752171 406.4213378 -421.1875 391.75 C-427.0655554 382.99248196 -432.64390228 374.08592789 -438 365 C-438.4522998 364.24058105 -438.90459961 363.48116211 -439.37060547 362.69873047 C-457.68471083 331.70712938 -467.87185369 297.48019088 -473 262 C-473.19698486 260.66267822 -473.19698486 260.66267822 -473.39794922 259.29833984 C-479.9104958 212.43175285 -473.84934719 163.73283656 -456 120 C-455.70544922 119.26942383 -455.41089844 118.53884766 -455.10742188 117.78613281 C-445.04355429 93.12639678 -430.60173754 70.9092824 -413 51 C-412.29875 50.18789062 -411.5975 49.37578125 -410.875 48.5390625 C-400.5622887 36.78100909 -389.44391477 25.49399492 -377 16 C-375.83567008 15.08367303 -374.67162636 14.16698232 -373.5078125 13.25 C-350.00861502 -5.0405658 -323.93366381 -18.86340732 -296 -29 C-295.24219238 -29.28182129 -294.48438477 -29.56364258 -293.70361328 -29.85400391 C-269.97937836 -38.62931493 -245.07183113 -43.25205852 -220 -46 C-218.98067383 -46.11714355 -217.96134766 -46.23428711 -216.91113281 -46.35498047 C-143.90383989 -54.44419814 -60.599269 -44.52191192 0 0 Z " fill="#2BCACA" transform="translate(661,175)"/>
<path d="M0 0 C1.61362412 1.51079513 3.21762049 3.03193015 4.8125 4.5625 C5.69421875 5.38105469 6.5759375 6.19960937 7.484375 7.04296875 C34.04293554 32.43865446 53.41905913 72.5316175 54.97363281 109.38208008 C55.01967782 113.71325539 55.05916126 118.04357552 55.0625 122.375 C55.06317474 123.15872986 55.06384949 123.94245972 55.06454468 124.74993896 C55.04835436 136.58158325 54.65042044 148.01977776 51.8125 159.5625 C51.64089355 160.27422363 51.46928711 160.98594727 51.29248047 161.71923828 C44.86822044 187.47943018 31.98817349 210.30456223 13.8125 229.5625 C13.12800781 230.31144531 12.44351562 231.06039063 11.73828125 231.83203125 C1.8126504 242.30806677 -10.52338997 249.8365851 -23.1875 256.5625 C-24.01765625 257.01109375 -24.8478125 257.4596875 -25.703125 257.921875 C-32.00536599 261.05266569 -38.67274485 263.10105693 -45.375 265.1875 C-46.75449829 265.62171265 -46.75449829 265.62171265 -48.16186523 266.06469727 C-61.92199332 270.21120966 -75.17504763 272.13211501 -89.5 272 C-90.21706116 271.99662628 -90.93412231 271.99325256 -91.6729126 271.98977661 C-103.22423223 271.91137399 -114.12623333 271.07107373 -125.1875 267.5625 C-125.96158203 267.32112305 -126.73566406 267.07974609 -127.53320312 266.83105469 C-162.54616161 255.59808374 -189.96836795 232.63185555 -207.08056641 200.00830078 C-221.30644926 171.84092634 -223.09206635 138.55437953 -213.625 108.6875 C-208.44969515 93.43213538 -200.54757622 79.84306654 -190.1875 67.5625 C-189.59453125 66.81871094 -189.0015625 66.07492187 -188.390625 65.30859375 C-173.0274307 46.61670735 -150.41196925 37.3276217 -126.828125 34.80078125 C-120.25570045 34.37061183 -113.76479155 34.36201225 -107.1875 34.5625 C-105.29837891 34.60697266 -105.29837891 34.60697266 -103.37109375 34.65234375 C-83.66451669 35.49485643 -64.91156635 42.3220373 -50.1875 55.5625 C-49.59195313 56.01753906 -48.99640625 56.47257812 -48.3828125 56.94140625 C-32.22735111 69.41163566 -23.62249582 90.11415462 -19.578125 109.48046875 C-16.72187907 132.01624913 -21.3004932 154.97079837 -35.2578125 173.16015625 C-35.89460938 173.95292969 -36.53140625 174.74570312 -37.1875 175.5625 C-38.15816406 176.8309375 -38.15816406 176.8309375 -39.1484375 178.125 C-48.79993302 189.66241994 -64.61480934 197.32697199 -79.50292969 198.79003906 C-98.72854721 200.0045298 -117.63005505 196.05111439 -132.625 183.25 C-142.10216441 174.05294882 -148.15281304 164.020477 -148.65820312 150.67333984 C-148.82960133 136.13020233 -145.50146049 124.22634661 -135.23828125 113.53125 C-127.07491064 105.96128747 -119.24133021 103.2270566 -108.2265625 103.34765625 C-101.10757176 103.8509268 -96.23073602 106.63934103 -91.1875 111.5625 C-88.64034881 115.03588799 -88.6796487 118.35458926 -89.1875 122.5625 C-90.97226241 125.53489241 -93.03958055 127.98854027 -96.1875 129.5625 C-99.86079964 129.69607453 -102.68602959 129.7296568 -106.1875 128.5625 C-110.33982017 128.15815422 -114.04941625 128.157848 -118 129.5625 C-122.88337104 134.02729638 -124.76445333 139.83896056 -125.22265625 146.33203125 C-125.12297764 152.65608551 -123.23327243 157.66498601 -119.1875 162.5625 C-110.29142691 170.96434681 -98.37268663 174.99845681 -86.28125 174.8359375 C-74.13950578 173.76280354 -63.25116592 168.13190073 -54.875 159.375 C-43.79538127 146.04305631 -41.90800227 131.23196657 -43.1875 114.5625 C-45.4662075 97.38929659 -54.77678708 82.79829977 -68.375 72.375 C-87.7938581 58.93954355 -108.92471493 54.7979183 -132.0625 58.75 C-151.88329549 62.51914111 -168.5639505 75.14998876 -179.92041016 91.68139648 C-194.77392281 114.52049792 -198.7286362 141.58446327 -193.5 168.1875 C-191.81815991 175.95141374 -189.52923631 183.33845238 -186.1875 190.5625 C-185.76984375 191.47902344 -185.3521875 192.39554688 -184.921875 193.33984375 C-173.46153318 216.29345942 -150.06538288 233.72619417 -126.20703125 241.96484375 C-95.26396542 252.17297746 -60.92384295 248.87866265 -31.69921875 234.42578125 C-23.43809337 230.08270757 -16.06748924 224.8873316 -9.1875 218.5625 C-8.6709082 218.09360352 -8.15431641 217.62470703 -7.62207031 217.14160156 C15.06259317 196.34171724 29.29478192 166.06651301 30.99267578 135.29736328 C31.86313135 112.65615864 29.59230418 91.53924805 20.8125 70.5625 C20.51859375 69.85786621 20.2246875 69.15323242 19.921875 68.42724609 C13.64526568 53.68319825 5.13261547 40.79858627 -5.1875 28.5625 C-6.01121094 27.53769531 -6.01121094 27.53769531 -6.8515625 26.4921875 C-29.08977195 -0.38337368 -65.44772482 -13.80701116 -99.1875 -17.4375 C-104.41806634 -17.72115545 -109.63807645 -17.78066921 -114.875 -17.75 C-115.92506226 -17.74577026 -115.92506226 -17.74577026 -116.99633789 -17.74145508 C-156.90328437 -17.50086036 -192.55816878 -2.06720374 -221.1875 25.5625 C-222.02796875 26.33980469 -222.8684375 27.11710937 -223.734375 27.91796875 C-253.29303905 56.01752678 -270.97401312 98.41561076 -272.40625 138.890625 C-273.29463734 178.16069802 -262.05623394 220.52672115 -237.1875 251.5625 C-236.1665625 252.86767578 -236.1665625 252.86767578 -235.125 254.19921875 C-233.17084409 256.67522311 -231.18735826 259.12334233 -229.1875 261.5625 C-228.67445313 262.20058594 -228.16140625 262.83867187 -227.6328125 263.49609375 C-223.89139368 268.03635605 -219.73712368 271.84145017 -215.1875 275.5625 C-214.28515625 276.30242187 -213.3828125 277.04234375 -212.453125 277.8046875 C-172.89602606 309.22948945 -124.63633567 324.50065836 -74.1875 319.5625 C-45.21147702 316.2045214 -13.52293592 306.65430944 10.66015625 289.9375 C11.31983398 289.48294434 11.97951172 289.02838867 12.65917969 288.56005859 C13.93018746 287.67262619 15.19089099 286.77016682 16.43847656 285.85009766 C20.92100194 282.6855981 24.30279999 281.74558453 29.8125 281.5625 C33.3149142 282.98940949 35.16698056 284.11214142 36.73046875 287.625 C37.83801569 291.59874419 38.17727574 293.65466586 36.59765625 297.5859375 C22.6477475 320.8459604 -17.38757221 332.25626178 -41.90820312 338.66992188 C-71.22802922 345.93911764 -101.45708619 346.72445925 -131.1875 341.5625 C-131.99268066 341.42859863 -132.79786133 341.29469727 -133.62744141 341.15673828 C-184.44991691 332.48485777 -229.41277958 303.29698749 -259.38012695 261.58129883 C-264.56804886 254.19816463 -269.05800377 246.57869799 -273.1875 238.5625 C-273.68709229 237.61600586 -273.68709229 237.61600586 -274.19677734 236.65039062 C-284.09106045 217.73896009 -290.84809626 196.62789705 -294.1875 175.5625 C-294.30174316 174.8705957 -294.41598633 174.17869141 -294.53369141 173.46582031 C-302.55290636 122.78438178 -288.57765694 72.84134338 -258.7734375 31.703125 C-228.57541014 -9.056774 -184.57987172 -32.92233982 -134.95922852 -41.03344727 C-87.68657492 -47.92468674 -35.71124631 -31.59288773 0 0 Z " fill="#2BCACA" transform="translate(598.1875,240.4375)"/>
</svg>
